<?xml version="1.0" encoding="utf-8"?>
<!-- Generator: Adobe Illustrator 18.1.0, SVG Export Plug-In . SVG Version: 6.00 Build 0)  -->
<!DOCTYPE svg PUBLIC "-//W3C//DTD SVG 1.1//EN" "http://www.w3.org/Graphics/SVG/1.1/DTD/svg11.dtd">
<svg version="1.1" id="Layer_1" xmlns="http://www.w3.org/2000/svg" xmlns:xlink="http://www.w3.org/1999/xlink" x="0px" y="0px"
	 viewBox="0 0 10 9.9" enable-background="new 0 0 10 9.9" xml:space="preserve">
<g>
	<circle fill="#FCFCFC" cx="5" cy="4.9" r="4.9"/>
	<path fill="#231F20" d="M5,9.9c2.8,0,5-2.2,5-5S7.7,0,5,0S0,2.2,0,5S2.2,9.9,5,9.9z M7.1,3.9C7.2,2.7,6.2,1.8,5,1.8s-2.2,1-2.1,2.2
		c0,1.2,1,2.2,2.1,2.2S7.1,5.1,7.1,3.9z M8.2,8.2V8c0-0.9-0.7-1.5-1.5-1.5H3.3C2.4,6.4,1.8,7.1,1.8,8v0.2C2.6,9,3.7,9.5,5,9.5
		S7.4,9,8.2,8.2z M5,9.5c-2.5,0-4.5-2-4.5-4.5s2-4.5,4.5-4.5s4.5,2,4.5,4.5S7.5,9.5,5,9.5z"/>
</g>
</svg>
