<?xml version="1.0" encoding="utf-8"?>
<!-- Generator: Adobe Illustrator 18.1.0, SVG Export Plug-In . SVG Version: 6.00 Build 0)  -->
<!DOCTYPE svg PUBLIC "-//W3C//DTD SVG 1.1//EN" "http://www.w3.org/Graphics/SVG/1.1/DTD/svg11.dtd">
<svg version="1.1" id="Layer_1" xmlns="http://www.w3.org/2000/svg" xmlns:xlink="http://www.w3.org/1999/xlink" x="0px" y="0px"
	 viewBox="0 0 1000 1000" enable-background="new 0 0 1000 1000" xml:space="preserve">
<g>
	<path fill="#FCFCFC" d="M303.2,363.6L158.5,508.3l144.7,144.7c12.6,12.6,37.7,12.6,50.3,0c12.6-12.6,12.6-37.7,0-50.3l-94.3-88.1
		L234,533.4l119.5-119.5c6.3-6.3,12.6-12.6,12.6-25.2s-6.3-18.9-12.6-25.2C340.9,351,315.7,351,303.2,363.6z"/>
	<path fill="#FCFCFC" d="M705.7,363.6l144.7,144.7L705.7,659.2c-12.6,12.6-37.7,12.6-50.3,0s-12.6-37.7,0-50.3l94.3-94.3l25.2,18.9
		L655.4,413.9c-6.3-6.3-12.6-18.9-12.6-25.2s6.3-18.9,12.6-25.2C668,351,686.8,351,705.7,363.6z"/>
	<path fill="#FCFCFC" d="M586.2,376.2c0-6.3-6.3-12.6-18.9-18.9c-18.9-6.3-37.7,0-44,18.9L416.4,621.5c-6.3,6.3-6.3,18.9,0,25.2
		s12.6,12.6,18.9,18.9c18.9,6.3,37.7,0,44-18.9l106.9-245.3C592.5,395,592.5,382.5,586.2,376.2z"/>
</g>
</svg>
