<?xml version="1.0" encoding="utf-8"?>
<!-- Generator: Adobe Illustrator 18.1.0, SVG Export Plug-In . SVG Version: 6.00 Build 0)  -->
<!DOCTYPE svg PUBLIC "-//W3C//DTD SVG 1.1//EN" "http://www.w3.org/Graphics/SVG/1.1/DTD/svg11.dtd">
<svg version="1.1" id="Layer_1" xmlns="http://www.w3.org/2000/svg" xmlns:xlink="http://www.w3.org/1999/xlink" x="0px" y="0px"
	 viewBox="0 0 11.3 11.3" enable-background="new 0 0 11.3 11.3" xml:space="preserve">
<g>
	<path fill="#FFFFFF" d="M2.3,3.5v0.3c0,0.1,0.1,0.1,0.1,0.1h0.5l0.7,0.7l0.6,1.9c0.1,0.2,0.3,0.3,0.4,0.3h1H6h1
		c0.2,0,0.4-0.1,0.4-0.3l0.6-1.9c0.1-0.2-0.1-0.3-0.2-0.3H6H5.6H4c0,0,0,0,0,0c0,0-0.9-0.8-0.9-0.8H2.4C2.3,3.4,2.3,3.4,2.3,3.5z"/>
	<circle fill="#FFFFFF" cx="6.9" cy="7.5" r="0.4"/>
	<circle fill="#FFFFFF" cx="4.8" cy="7.5" r="0.4"/>
</g>
</svg>
