<?xml version="1.0" encoding="utf-8"?>
<!-- Generator: Adobe Illustrator 18.1.0, SVG Export Plug-In . SVG Version: 6.00 Build 0)  -->
<!DOCTYPE svg PUBLIC "-//W3C//DTD SVG 1.1//EN" "http://www.w3.org/Graphics/SVG/1.1/DTD/svg11.dtd">
<svg version="1.1" id="Layer_1" xmlns="http://www.w3.org/2000/svg" xmlns:xlink="http://www.w3.org/1999/xlink" x="0px" y="0px"
	 viewBox="0 0 11.3 11.3" enable-background="new 0 0 11.3 11.3" xml:space="preserve">
<g>
	<path fill="#FCFCFC" d="M4.7,7.5c0.1-0.1,0.4-0.1,0.5-0.2c0.1,0,0.3-0.2,0.5-0.2c0.2,0,0.6-0.2,0.7-0.2c0.1,0,0.1-0.1,0.2-0.1
		c0.1,0,0.3-0.1,0.5-0.1c0.2,0,0.1,0,0.2,0.1c0,0,0.1,0.1,0.1,0.2c0,0.1-0.1,0,0,0.1c0.1,0.1,0.1,0.1,0,0.2c-0.1,0.1,0,0.1,0,0.1
		c0,0-0.1,0-0.1,0v0.1c0,0,0,0-0.1,0c-0.1,0-0.3,0-0.3,0l-0.1,0l-0.1,0c-0.2,0-0.7,0-0.7,0s-0.1,0,0,0c0.1,0,0.4,0,0.4,0
		c0.1,0.1,0.3,0,0.3,0c0.1,0.1,0.3,0,0.3,0c0,0.1,0.2,0.1,0.2,0.1s0,0,0,0.2c0,0.2-0.1,0.5-0.1,0.7c0,0.1,0,0.2,0,0.3
		c0,0.1,0,0.3,0,0.3c-0.1-0.1-0.5-1-0.5-1c0,0.1,0.3,0.9,0.4,1.2c0.1,0.2,0.2,0.3,0.2,0.4c0,0.1,0,0.1,0,0.2c0,0.1,0.1,0.2,0.1,0.2
		H6.8v0C6.7,9.8,6.7,9.3,6.7,9.2c0-0.1,0-0.3-0.1-0.3c0,0-0.4,0-0.4,0c0,0,0,0,0,0C6.4,9.1,6.5,9,6.5,9s0-0.3,0,0
		c0,0.3,0.1,0.3,0.1,0.3c0.1,0.2,0.1,0.7,0.1,0.7H4.9v-0.1c0-0.1,0-0.4,0-0.4C4.8,9.5,4.7,9.2,4.6,9.1c0-0.1-0.1-0.3-0.1-0.5
		c0-0.2,0-0.1-0.1-0.2c-0.1-0.1,0-0.1,0-0.2c0-0.1,0-0.2,0-0.2c0-0.1,0,0-0.2-0.1c-0.1-0.1,0-0.1,0-0.1c0,0,0.1,0.1,0.1-0.1
		c0-0.1,0.2-0.1,0.2-0.1C4.6,7.6,4.6,7.6,4.7,7.5z M5.1,7.7c0,0-0.4,0.2-0.4,0.2C4.6,8,4.5,8,4.5,8c0,0-0.1,0.1,0,0.1
		c0,0.1,0.2,0,0.3-0.1c0.1,0,0.5-0.3,0.6-0.4C5.4,7.6,5.1,7.7,5.1,7.7z M4.8,8.4c0,0.1,0.1,0,0.1,0C5,8.3,5.2,7.9,5.2,7.9
		S5.3,7.8,5,8.1C4.8,8.4,4.5,8.4,4.5,8.4C4.6,8.6,4.8,8.4,4.8,8.4z M5.4,10.1C5.2,9.7,5.3,9.3,5.3,9.3c0-0.3,0.4-0.6,0.4-0.6
		C5.4,8.7,5.3,9,5.3,9c0-0.3,0.2-0.9,0.2-0.9c-0.6,1.3-0.2,2.1-0.2,2.1 M6.1,7.6c0.2-0.2,0.6-0.3,0.6-0.3C7.5,7.3,7.5,7,7.5,7
		S7.2,7.2,6.8,7.3c-0.4,0-1,0.4-1,0.4 M5.5,7.6C5.6,7.3,6.1,7,6.1,7C5.5,7.1,5.4,7.6,5.5,7.6C5.4,7.6,5.4,7.7,5.5,7.6
		C5.5,7.7,5.5,7.7,5.5,7.6z"/>
	<path fill="#FCFCFC" d="M5.4,1.6c0.2,0.1,0.2,0.3,0.2,0.3c0.1,0.2,0,0.4-0.1,0.4c0,0.1,0,0,0.1,0.3C5.6,3,6.1,2.9,6.1,3
		c0.1,0,0.2,0,0.3,0c0.1,0,0.2,0,0.2,0c-0.1,0-0.2,0.2-0.2,0.2C6.4,3.7,7,3.7,7,3.7s0,0-0.1,0c-0.1,0-0.2-0.2-0.3-0.4
		C6.6,3.2,6.6,2.9,6.8,2.9c0.3,0,0.3,0.6,0.3,0.6c0,0.1,0,0.5,0,0.7c0,0.2,0.1,1,0.1,1.1c0,0.1,0,0.2,0,0.4c0,0.2,0.1,0.9,0.1,0.9
		c0,0-0.1,0-0.4,0c-0.3,0-0.4,0.1-0.5,0.2c-0.1,0-0.3,0-0.3,0.1C6,6.9,5.8,7,5.7,7c-0.1,0-0.3,0.1-0.3,0.1c0,0-0.1,0.1-0.2,0.1
		C5.2,7.3,5,7.3,5,7.3c-0.1,0-0.1,0-0.2,0c0,0-0.3,0.2-0.3,0.2c0-0.4,0.2-0.9,0.2-0.9c0,0,0.1-0.3,0.1-0.3c0-0.1,0.3-0.5,0.3-0.5
		c0,0,0.1-0.5-0.1-0.7C4.9,4.9,4.8,4.7,4.8,4.7c0,0,0-0.3,0-0.3c-0.2,0-0.2-0.2-0.2-0.2c0,0.2,0.1,0.2,0.1,0.2c0,0,0,0.1,0,0.2
		c0,0.1,0,0.1,0,0.1c0,0,0,0,0,0c-0.1,0-0.3,0-0.3,0C4.2,4.9,4.3,5.2,4.3,5.2s0-0.2,0.3-0.3C4.8,4.8,4.9,5,4.9,5.1
		c0,0.1,0,0.3-0.4,0.3c-0.3,0-0.4-0.2-0.4-0.2s0-0.1,0-0.7c0-0.6,0.2-0.7,0.3-0.8s0.3-0.2,0.4-0.3C5,3.3,4.9,3.2,4.9,3.2
		S4.9,3.1,4.7,2.8S4.4,2.6,4.3,2.5C4.1,2.4,4.2,2.1,4.2,2.1c0-0.2,0-0.3,0-0.3c0-0.6,0.6-0.5,0.6-0.5C5.2,1.1,5.4,1.6,5.4,1.6z
		 M5.8,6c0,0,0,0.1,0.1,0C5.9,6,5.8,6,5.8,6z"/>
</g>
</svg>
