<?xml version="1.0" encoding="utf-8"?>
<!-- Generator: Adobe Illustrator 18.1.0, SVG Export Plug-In . SVG Version: 6.00 Build 0)  -->
<!DOCTYPE svg PUBLIC "-//W3C//DTD SVG 1.1//EN" "http://www.w3.org/Graphics/SVG/1.1/DTD/svg11.dtd">
<svg version="1.1" id="Layer_1" xmlns="http://www.w3.org/2000/svg" xmlns:xlink="http://www.w3.org/1999/xlink" x="0px" y="0px"
	 viewBox="0 0 11.3 11.3" enable-background="new 0 0 11.3 11.3" xml:space="preserve">
<g>
	<path fill="#FFFFFF" d="M8.6,4.3L8.1,4.7H7.4v0.8v0.2v0.8h0.7l0.6,0.5c0.1,0.1,0.3,0,0.3-0.1V5.8V5.3V4.4C8.9,4.3,8.7,4.2,8.6,4.3z
		"/>
	<path fill="#FFFFFF" d="M6.7,3.7H3.2c-0.2,0-0.4,0.2-0.4,0.4v2.7c0,0.2,0.2,0.4,0.4,0.4h3.5c0.2,0,0.4-0.2,0.4-0.4V4.2
		C7.1,3.9,6.9,3.7,6.7,3.7z M5.5,5.7l-1,0.5C4.4,6.2,4.3,6.1,4.3,6V5c0-0.1,0.1-0.2,0.2-0.2l1,0.5C5.6,5.4,5.6,5.6,5.5,5.7z"/>
</g>
</svg>
