<?xml version="1.0" encoding="utf-8"?>
<!-- Generator: Adobe Illustrator 18.1.0, SVG Export Plug-In . SVG Version: 6.00 Build 0)  -->
<!DOCTYPE svg PUBLIC "-//W3C//DTD SVG 1.1//EN" "http://www.w3.org/Graphics/SVG/1.1/DTD/svg11.dtd">
<svg version="1.1" id="Layer_1" xmlns="http://www.w3.org/2000/svg" xmlns:xlink="http://www.w3.org/1999/xlink" x="0px" y="0px"
	 viewBox="0 0 11.3 11.3" enable-background="new 0 0 11.3 11.3" xml:space="preserve">
<path fill="#FFFFFF" d="M9.1,6.5L8.3,4C8,3.4,7.2,3.2,6.6,3.5C6.4,3.6,6.2,3.8,6.1,4h-1C5.1,3.8,4.9,3.6,4.7,3.5
	C4.1,3.2,3.2,3.4,3,4L2.2,6.5C2.1,7,2.2,7.4,2.6,7.6s0.8,0,1.1-0.4L4.6,6h2l0.9,1.2c0.3,0.4,0.7,0.6,1.1,0.4C9.1,7.4,9.2,7,9.1,6.5z
	 M4.6,4.9H4.2v0.3H3.9V4.9H3.5V4.5h0.3V4.2h0.3v0.3h0.3L4.6,4.9L4.6,4.9z M6.8,5.2c-0.1,0-0.3,0-0.3-0.2c0-0.1,0-0.3,0.2-0.3
	c0.1,0,0.3,0,0.3,0.2C7,5,7,5.1,6.8,5.2z M7.6,4.7c-0.1,0-0.3,0-0.3-0.2c0-0.1,0-0.3,0.2-0.3c0.1,0,0.3,0,0.3,0.2
	C7.8,4.5,7.7,4.7,7.6,4.7z"/>
</svg>
