<?xml version="1.0" encoding="utf-8"?>
<!-- Generator: Adobe Illustrator 18.1.0, SVG Export Plug-In . SVG Version: 6.00 Build 0)  -->
<!DOCTYPE svg PUBLIC "-//W3C//DTD SVG 1.1//EN" "http://www.w3.org/Graphics/SVG/1.1/DTD/svg11.dtd">
<svg version="1.1" id="Layer_1" xmlns="http://www.w3.org/2000/svg" xmlns:xlink="http://www.w3.org/1999/xlink" x="0px" y="0px"
	 viewBox="0 0 1000 1000" enable-background="new 0 0 1000 1000" xml:space="preserve">
<g>
	<path fill="#FCFCFC" d="M504.4,159.3l-354,177V708l354,177l354-177V336.3L504.4,159.3z M185.8,354l309.7-159.3v318.6l-88.5,44.2
		V327.4l-123.9,53.1v238.9l-97.3,53.1V354z M300.9,610.6V389.4l97.3-44.2v221.2L300.9,610.6z M504.4,840.7L194.7,681.4L504.4,531
		L823,690.3L504.4,840.7z M831.9,672.6L522.1,513.3V194.7L831.9,354V672.6z"/>
	<g>
		<path fill="#F9F9F9" d="M734.5,513.3l-123.9-61.9V327.4l123.9,61.9V513.3z M628.3,442.5l97.3,44.2v-88.5L628.3,354V442.5z"/>
	</g>
	<g>
		<polygon fill="#F9F7F7" points="584.1,575.2 504.4,539.8 433.6,575.2 504.4,610.6 		"/>
		<polygon fill="#F9F7F7" points="504.4,690.3 584.1,646 504.4,610.6 433.6,646 362.8,610.6 292,646 362.8,690.3 433.6,654.9 		"/>
		<polygon fill="#F9F7F7" points="504.4,690.3 433.6,725.7 362.8,690.3 292,725.7 362.8,761.1 433.6,725.7 504.4,761.1 584.1,725.7 
					"/>
		<polygon fill="#F9F7F7" points="504.4,831.9 584.1,796.5 504.4,761.1 433.6,796.5 		"/>
		<polygon fill="#F9F7F7" points="654.9,610.6 584.1,646 654.9,690.3 725.7,646 		"/>
		<polygon fill="#F9F7F7" points="584.1,725.7 654.9,761.1 725.7,725.7 654.9,690.3 		"/>
	</g>
</g>
</svg>
