<?xml version="1.0" encoding="utf-8"?>
<!-- Generator: Adobe Illustrator 18.1.0, SVG Export Plug-In . SVG Version: 6.00 Build 0)  -->
<!DOCTYPE svg PUBLIC "-//W3C//DTD SVG 1.1//EN" "http://www.w3.org/Graphics/SVG/1.1/DTD/svg11.dtd">
<svg version="1.1" id="Layer_1" xmlns="http://www.w3.org/2000/svg" xmlns:xlink="http://www.w3.org/1999/xlink" x="0px" y="0px"
	 viewBox="0 0 1000 1000" enable-background="new 0 0 1000 1000" xml:space="preserve">
<g>
	<path fill="#FFFFFF" d="M546.3,569.4c-8,0-16,8-16,16v112.3l0,0c0,16,16,32.1,32.1,32.1c16,0,32.1-16,32.1-32.1l0,0V585.5
		c0-8-8-16-16-16H546.3z"/>
	<path fill="#FFFFFF" d="M570.4,665.6c-24.1,0-40.1,16-40.1,40.1v168.4c0,8,8,16,16,16h40.1c8,0,16-8,16-16V705.7
		C602.5,681.7,586.4,665.6,570.4,665.6L570.4,665.6z"/>
	<path fill="#FFFFFF" d="M458.1,280.7h128.3c16,0,24.1,8,24.1,16v272.7c0,8-8,16-16,16H458.1c-8,0-16-8-16-16V296.7
		C442.1,288.7,450.1,280.7,458.1,280.7z"/>
	<path fill="#FFFFFF" d="M594.4,200.5c0,40.1-32.1,64.2-64.2,64.2c-40.1,0-64.2-32.1-64.2-64.2c0-40.1,32.1-64.2,64.2-64.2
		C562.4,136.3,594.4,168.4,594.4,200.5z"/>
	<path fill="#FFFFFF" d="M474.1,529.3L474.1,529.3c-8,0-48.1,32.1-88.2,48.1s-40.1,64.2,0,80.2c56.1,24.1,152.4,48.1,152.4,48.1
		c8,0,16,0,16-8l16-40.1c0-8,0-16-8-16l-96.2-32.1l56.1-32.1c-8,0-16,8-16,0l-16-40.1C482.2,537.3,482.2,529.3,474.1,529.3
		L474.1,529.3z M530.3,569.4L530.3,569.4L530.3,569.4L530.3,569.4L530.3,569.4z"/>
	<path fill="#FFFFFF" d="M458.1,280.7C450.1,280.7,450.1,280.7,458.1,280.7c-40.1,24.1-72.2,40.1-112.3,64.2c-16,8-8,40.1,24.1,40.1
		c40.1,0,72.2,0,112.3,0c8,0,16-8,16-16v-16c0-8-8-16-16-16H426l40.1-24.1c8,0,8-16,0-16l0-16H458.1L458.1,280.7z"/>
	<path fill="#FFFFFF" d="M594.4,280.7C594.4,280.7,602.5,280.7,594.4,280.7c40.1,24.1,72.2,48.1,104.3,64.2c16,16,16,40.1-16,40.1
		c-40.1,0-72.2,0-112.3,0c-8,0-16-8-16-16v-16c0-8,8-16,16-16h56.1l-48.1-16c-8,0-8-16,0-16l8-16
		C586.4,280.7,594.4,280.7,594.4,280.7L594.4,280.7z"/>
</g>
</svg>
