<?xml version="1.0" encoding="utf-8"?>
<!-- Generator: Adobe Illustrator 18.1.0, SVG Export Plug-In . SVG Version: 6.00 Build 0)  -->
<!DOCTYPE svg PUBLIC "-//W3C//DTD SVG 1.1//EN" "http://www.w3.org/Graphics/SVG/1.1/DTD/svg11.dtd">
<svg version="1.1" id="Layer_1" xmlns="http://www.w3.org/2000/svg" xmlns:xlink="http://www.w3.org/1999/xlink" x="0px" y="0px"
	 viewBox="0 0 11.3 11.3" enable-background="new 0 0 11.3 11.3" xml:space="preserve">
<path fill="#FCFCFC" d="M4.3,6.4V6.2H2.9V5.8c0-0.2-0.1-0.3-0.3-0.3H1.4c-0.2,0-0.3,0.1-0.3,0.3V7c0,0.2,0.1,0.3,0.3,0.3h0.9v1
	c0,0.2,0.2,0.4,0.4,0.4h1.6c0.2,0,0.4-0.2,0.4-0.4V7C4.5,6.9,4.3,6.7,4.3,6.4z"/>
<path fill="#FCFCFC" d="M8,3.9v0.6h0.5c0.2,0,0.4-0.2,0.4-0.4V2.7c0-0.2-0.2-0.4-0.4-0.4H7c-0.2,0-0.4,0.2-0.4,0.4v0.6h0.7
	C7.7,3.3,8,3.6,8,3.9z"/>
<path fill="#FCFCFC" d="M2.9,4.3h1.4V3.9c0-0.3,0.3-0.6,0.6-0.6h0v-1c0-0.2-0.2-0.4-0.4-0.4H2.9c-0.2,0-0.4,0.2-0.4,0.4v1.6
	C2.5,4.1,2.7,4.3,2.9,4.3z"/>
<path fill="#FCFCFC" d="M9.6,6.4H8C8,6.7,7.7,7,7.4,7H7v2c0,0.3,0.2,0.5,0.5,0.5h2.1c0.3,0,0.5-0.2,0.5-0.5V6.9
	C10.1,6.6,9.9,6.4,9.6,6.4z"/>
<path fill="#FCFCFC" d="M7.9,6.4V3.9c0-0.3-0.3-0.6-0.6-0.6H4.9c-0.3,0-0.6,0.3-0.6,0.6v2.4c0,0.3,0.3,0.6,0.6,0.6h2.4
	C7.7,6.9,7.9,6.7,7.9,6.4z"/>
</svg>
